<svg width="205" height="205" viewBox="0 0 205 205" fill="none" xmlns="http://www.w3.org/2000/svg">
<path d="M102.5 0L115.791 14.321L132.712 4.55379L141.192 22.1561L160.24 17.8105L163.154 37.1301L182.638 38.5923L179.728 57.9125L197.915 65.0525L189.439 82.6567L204.713 94.8402L191.426 109.164L202.43 125.308L185.511 135.079L191.268 153.75L172.22 158.1L172.218 177.638L152.734 176.18L146.973 194.849L128.785 187.713L117.777 203.855L102.5 191.675L87.2232 203.855L76.2152 187.713L58.0269 194.849L52.2659 176.18L32.7823 177.638L32.7802 158.1L13.7324 153.75L19.4893 135.079L2.56989 125.308L13.5743 109.164L0.286613 94.8402L15.5608 82.6567L7.08544 65.0525L25.2722 57.9125L22.3623 38.5923L41.8456 37.1301L44.7597 17.8105L63.8084 22.1561L72.2876 4.55379L89.2092 14.321L102.5 0Z" fill="white"/>
<path d="M102.5 10.9401L113.288 22.5638L114.372 23.7326L115.753 22.9354L129.488 15.0078L136.37 29.2948L137.062 30.7314L138.617 30.3767L154.078 26.8496L156.443 42.5304L156.681 44.1072L158.271 44.2265L174.084 45.4133L171.723 61.0946L171.485 62.6714L172.969 63.2542L187.731 69.0494L180.852 83.3379L180.16 84.7746L181.407 85.769L193.804 95.6577L183.019 107.284L181.934 108.453L182.833 109.77L191.764 122.874L178.032 130.805L176.651 131.602L177.121 133.126L181.793 148.28L166.333 151.81L164.778 152.165L164.778 153.76L164.777 169.618L148.963 168.435L147.372 168.316L146.902 169.84L142.226 184.993L127.464 179.201L125.979 178.618L125.081 179.936L116.146 193.037L103.747 183.151L102.5 182.157L101.253 183.151L88.8537 193.037L79.9191 179.936L79.0206 178.618L77.5362 179.201L62.7736 184.993L58.0977 169.84L57.6275 168.316L56.0374 168.435L40.2234 169.618L40.2217 153.76L40.2216 152.165L38.667 151.81L23.2068 148.28L27.8794 133.126L28.3493 131.602L26.9684 130.805L13.2357 122.874L22.1675 109.77L23.0656 108.453L21.9811 107.284L11.1961 95.6577L23.5934 85.769L24.84 84.7746L24.1483 83.3379L17.2693 69.0494L32.0306 63.2542L33.5149 62.6714L33.2774 61.0946L30.9156 45.4133L46.7293 44.2265L48.3194 44.1072L48.5572 42.5304L50.9225 26.8496L66.3834 30.3767L67.9381 30.7314L68.6301 29.2948L75.5122 15.0078L89.2467 22.9354L90.6277 23.7326L91.7124 22.5638L102.5 10.9401Z" fill="white" stroke="#FE181A" stroke-width="4"/>
<path d="M51.9517 70.7611V107.54H44.2999V78.1421H44.0878L35.7998 83.422V76.5259L44.7593 70.7611H51.9517Z" fill="#505050"/>
<path d="M74.7436 108.349C71.7041 108.337 69.0887 107.576 66.8974 106.068C64.7179 104.559 63.0391 102.374 61.861 99.5129C60.6947 96.6515 60.1174 93.2095 60.1292 89.1867C60.1292 85.176 60.7124 81.7578 61.8787 78.9323C63.0568 76.1068 64.7356 73.9578 66.9151 72.4852C69.1064 71.0006 71.7159 70.2583 74.7436 70.2583C77.7714 70.2583 80.375 71.0006 82.5545 72.4852C84.7458 73.9698 86.4305 76.1248 87.6086 78.9503C88.7867 81.7638 89.3699 85.176 89.3581 89.1867C89.3581 93.2214 88.769 96.6695 87.5909 99.5309C86.4246 102.392 84.7517 104.577 82.5722 106.086C80.3927 107.594 77.7832 108.349 74.7436 108.349ZM74.7436 101.901C76.8171 101.901 78.4724 100.842 79.7094 98.7228C80.9464 96.6036 81.559 93.425 81.5472 89.1867C81.5472 86.3971 81.2645 84.0745 80.699 82.2188C80.1453 80.363 79.3559 78.9682 78.331 78.0344C77.3178 77.1005 76.122 76.6336 74.7436 76.6336C72.682 76.6336 71.0326 77.6812 69.7956 79.7764C68.5586 81.8716 67.9342 85.0083 67.9224 89.1867C67.9224 92.0122 68.1993 94.3708 68.753 96.2624C69.3185 98.1421 70.1137 99.5549 71.1386 100.501C72.1636 101.435 73.3653 101.901 74.7436 101.901Z" fill="#505050"/>
<path d="M109.005 108.349C105.965 108.337 103.35 107.576 101.158 106.068C98.9788 104.559 97.3 102.374 96.1219 99.5129C94.9556 96.6515 94.3783 93.2095 94.3901 89.1867C94.3901 85.176 94.9732 81.7578 96.1396 78.9323C97.3177 76.1068 98.9965 73.9578 101.176 72.4852C103.367 71.0006 105.977 70.2583 109.005 70.2583C112.032 70.2583 114.636 71.0006 116.815 72.4852C119.007 73.9698 120.691 76.1248 121.869 78.9503C123.048 81.7638 123.631 85.176 123.619 89.1867C123.619 93.2214 123.03 96.6695 121.852 99.5309C120.685 102.392 119.013 104.577 116.833 106.086C114.654 107.594 112.044 108.349 109.005 108.349ZM109.005 101.901C111.078 101.901 112.733 100.842 113.97 98.7228C115.207 96.6036 115.82 93.425 115.808 89.1867C115.808 86.3971 115.525 84.0745 114.96 82.2188C114.406 80.363 113.617 78.9682 112.592 78.0344C111.579 77.1005 110.383 76.6336 109.005 76.6336C106.943 76.6336 105.293 77.6812 104.056 79.7764C102.819 81.8716 102.195 85.0083 102.183 89.1867C102.183 92.0122 102.46 94.3708 103.014 96.2624C103.579 98.1421 104.375 99.5549 105.4 100.501C106.424 101.435 107.626 101.901 109.005 101.901Z" fill="#505050"/>
<path d="M126.809 108.108L126.793 105.723H127.212C127.529 105.723 127.795 105.651 128.011 105.507C128.227 105.363 128.407 105.122 128.549 104.786C128.691 104.445 128.802 103.986 128.881 103.409C128.96 102.833 129.016 102.115 129.047 101.256L129.261 95.812H138.12V108.108H135.351V98.1896H131.863L131.673 102.152C131.626 103.177 131.513 104.066 131.333 104.818C131.159 105.565 130.911 106.182 130.59 106.667C130.273 107.153 129.875 107.516 129.395 107.756C128.915 107.991 128.349 108.108 127.695 108.108H126.809Z" fill="#505050"/>
<path d="M146.382 108.349C145.164 108.349 144.112 108.092 143.226 107.58C142.345 107.062 141.668 106.331 141.193 105.387C140.718 104.437 140.481 103.318 140.481 102.032C140.481 100.767 140.718 99.6573 141.193 98.702C141.673 97.7413 142.343 96.9941 143.202 96.4604C144.062 95.9214 145.071 95.6519 146.232 95.6519C146.98 95.6519 147.687 95.7746 148.351 96.0201C149.021 96.2603 149.612 96.6339 150.123 97.1409C150.64 97.6479 151.046 98.2937 151.341 99.0782C151.637 99.8574 151.784 100.786 151.784 101.864V102.753H141.826V100.799H149.04C149.034 100.244 148.916 99.7507 148.684 99.3184C148.452 98.8808 148.127 98.5365 147.711 98.2857C147.299 98.0348 146.82 97.9094 146.271 97.9094C145.686 97.9094 145.172 98.0535 144.729 98.3417C144.286 98.6246 143.94 98.9982 143.693 99.4625C143.45 99.9215 143.326 100.426 143.321 100.976V102.681C143.321 103.396 143.45 104.01 143.708 104.522C143.967 105.029 144.328 105.419 144.792 105.691C145.256 105.958 145.799 106.091 146.421 106.091C146.838 106.091 147.215 106.032 147.553 105.915C147.89 105.792 148.183 105.613 148.431 105.379C148.678 105.144 148.866 104.853 148.992 104.506L151.666 104.81C151.497 105.525 151.175 106.15 150.701 106.683C150.231 107.212 149.63 107.623 148.897 107.916C148.164 108.205 147.326 108.349 146.382 108.349Z" fill="#505050"/>
<path d="M153.194 98.1896V95.812H163.825V98.1896H159.894V108.108H157.126V98.1896H153.194Z" fill="#505050"/>
<path d="M46.6993 123.442H44.4824C44.4191 123.064 44.3026 122.728 44.1326 122.435C43.9627 122.139 43.7513 121.888 43.4984 121.682C43.2455 121.476 42.957 121.321 42.633 121.218C42.3129 121.111 41.9671 121.058 41.5956 121.058C40.9357 121.058 40.3508 121.231 39.8411 121.577C39.3313 121.918 38.9322 122.421 38.6437 123.084C38.3552 123.743 38.211 124.548 38.211 125.5C38.211 126.468 38.3552 127.284 38.6437 127.947C38.9361 128.606 39.3352 129.104 39.8411 129.442C40.3508 129.776 40.9337 129.942 41.5897 129.942C41.9533 129.942 42.2931 129.893 42.6092 129.794C42.9293 129.691 43.2158 129.541 43.4687 129.343C43.7256 129.145 43.941 128.902 44.1148 128.614C44.2927 128.326 44.4152 127.996 44.4824 127.625L46.6993 127.638C46.6163 128.239 46.4365 128.804 46.1599 129.331C45.8872 129.858 45.5296 130.324 45.087 130.727C44.6444 131.127 44.1267 131.44 43.5339 131.666C42.9412 131.889 42.2832 132 41.5601 132C40.4931 132 39.5407 131.743 38.703 131.228C37.8652 130.713 37.2053 129.969 36.7232 128.997C36.2411 128.025 36 126.859 36 125.5C36 124.137 36.243 122.971 36.7291 122.003C37.2152 121.031 37.8771 120.287 38.7148 119.772C39.5526 119.257 40.501 119 41.5601 119C42.2358 119 42.8641 119.099 43.445 119.297C44.0259 119.494 44.5436 119.785 44.9981 120.168C45.4525 120.547 45.8259 121.012 46.1184 121.564C46.4147 122.112 46.6084 122.738 46.6993 123.442Z" fill="#505050"/>
<path d="M48.7132 131.827V119.173H53.2655C54.1981 119.173 54.9806 119.354 55.6129 119.717C56.2491 120.079 56.7292 120.578 57.0533 121.212C57.3812 121.842 57.5452 122.559 57.5452 123.362C57.5452 124.174 57.3812 124.894 57.0533 125.525C56.7253 126.155 56.2412 126.651 55.601 127.014C54.9608 127.372 54.1725 127.551 53.2359 127.551H50.2188V125.667H52.9395C53.4849 125.667 53.9314 125.568 54.2792 125.37C54.6269 125.173 54.8838 124.901 55.0497 124.555C55.2197 124.209 55.3046 123.811 55.3046 123.362C55.3046 122.913 55.2197 122.518 55.0497 122.176C54.8838 121.834 54.6249 121.568 54.2732 121.379C53.9255 121.185 53.477 121.088 52.9277 121.088H50.9123V131.827H48.7132Z" fill="#505050"/>
<path d="M70.3029 125.5C70.3029 126.863 70.0579 128.031 69.5678 129.003C69.0818 129.971 68.4179 130.713 67.5762 131.228C66.7384 131.743 65.788 132 64.725 132C63.662 132 62.7096 131.743 61.8679 131.228C61.0302 130.709 60.3663 129.965 59.8763 128.997C59.3902 128.025 59.1472 126.859 59.1472 125.5C59.1472 124.137 59.3902 122.971 59.8763 122.003C60.3663 121.031 61.0302 120.287 61.8679 119.772C62.7096 119.257 63.662 119 64.725 119C65.788 119 66.7384 119.257 67.5762 119.772C68.4179 120.287 69.0818 121.031 69.5678 122.003C70.0579 122.971 70.3029 124.137 70.3029 125.5ZM68.0919 125.5C68.0919 124.54 67.9476 123.731 67.6592 123.072C67.3746 122.409 66.9795 121.908 66.4737 121.57C65.9678 121.228 65.385 121.058 64.725 121.058C64.0651 121.058 63.4822 121.228 62.9764 121.57C62.4706 121.908 62.0734 122.409 61.7849 123.072C61.5004 123.731 61.3582 124.54 61.3582 125.5C61.3582 126.46 61.5004 127.271 61.7849 127.934C62.0734 128.593 62.4706 129.094 62.9764 129.436C63.4822 129.774 64.0651 129.942 64.725 129.942C65.385 129.942 65.9678 129.774 66.4737 129.436C66.9795 129.094 67.3746 128.593 67.6592 127.934C67.9476 127.271 68.0919 126.46 68.0919 125.5Z" fill="#505050"/>
<path d="M79.6551 131.827L75.6599 126.297H74.5811V131.827H72.382V119.173H74.5811V124.375H75.1324L79.4476 119.173H82.1565L77.3611 124.944L82.364 131.827H79.6551Z" fill="#505050"/>
<path d="M98.3892 123.442H96.1723C96.109 123.064 95.9925 122.728 95.8225 122.435C95.6526 122.139 95.4412 121.888 95.1883 121.682C94.9354 121.476 94.6469 121.321 94.3229 121.218C94.0028 121.111 93.657 121.058 93.2855 121.058C92.6256 121.058 92.0408 121.231 91.531 121.577C91.0212 121.918 90.6221 122.421 90.3336 123.084C90.0451 123.743 89.9009 124.548 89.9009 125.5C89.9009 126.468 90.0451 127.284 90.3336 127.947C90.626 128.606 91.0252 129.104 91.531 129.442C92.0408 129.776 92.6236 129.942 93.2796 129.942C93.6432 129.942 93.983 129.893 94.2992 129.794C94.6192 129.691 94.9057 129.541 95.1587 129.343C95.4155 129.145 95.6309 128.902 95.8048 128.614C95.9826 128.326 96.1051 127.996 96.1723 127.625L98.3892 127.638C98.3062 128.239 98.1264 128.804 97.8498 129.331C97.5771 129.858 97.2195 130.324 96.7769 130.727C96.3343 131.127 95.8166 131.44 95.2239 131.666C94.6311 131.889 93.9731 132 93.25 132C92.183 132 91.2307 131.743 90.3929 131.228C89.5551 130.713 88.8952 129.969 88.4131 128.997C87.931 128.025 87.6899 126.859 87.6899 125.5C87.6899 124.137 87.9329 122.971 88.419 122.003C88.9051 121.031 89.567 120.287 90.4047 119.772C91.2425 119.257 92.1909 119 93.25 119C93.9257 119 94.554 119.099 95.1349 119.297C95.7158 119.494 96.2335 119.785 96.688 120.168C97.1424 120.547 97.5159 121.012 97.8083 121.564C98.1047 122.112 98.2983 122.738 98.3892 123.442Z" fill="#505050"/>
<path d="M99.6147 131.827V129.924L99.9585 129.905C100.425 129.877 100.794 129.702 101.067 129.38C101.344 129.059 101.547 128.542 101.678 127.829C101.812 127.117 101.901 126.161 101.944 124.962L102.146 119.173H110.101V131.827H107.949V121.058H104.197L104.007 125.673C103.952 127.057 103.806 128.204 103.568 129.115C103.335 130.025 102.952 130.705 102.418 131.154C101.889 131.603 101.152 131.827 100.207 131.827H99.6147Z" fill="#505050"/>
<path d="M113.583 132V130.072H114.277C114.589 130.072 114.846 130.025 115.047 129.93C115.249 129.835 115.411 129.699 115.533 129.522C115.66 129.345 115.764 129.139 115.847 128.904L116.007 128.478L111.668 119.173H113.968L116.991 125.945L119.605 119.173H121.87L117.685 129.491C117.491 129.936 117.268 130.35 117.015 130.733C116.762 131.112 116.432 131.419 116.025 131.654C115.622 131.885 115.097 132 114.448 132H113.583Z" fill="#505050"/>
<path d="M131.996 119.173V131.827H129.838V119.173H131.996ZM122.707 131.827L126.56 125.179L122.926 119.173H125.623L128.492 124.518H133.394L136.216 119.173H138.901L135.321 125.173L139.126 131.827H136.524L133.709 126.643H128.154L125.286 131.827H122.707Z" fill="#505050"/>
<path d="M140.797 131.827V119.173H148.603V121.095H142.996V124.06H145.337C146.266 124.06 147.062 124.219 147.726 124.536C148.394 124.849 148.905 125.292 149.261 125.865C149.617 126.437 149.795 127.111 149.795 127.885C149.795 128.663 149.617 129.349 149.261 129.942C148.905 130.532 148.394 130.993 147.726 131.327C147.062 131.66 146.266 131.827 145.337 131.827H140.797ZM142.996 129.949H145.337C145.827 129.949 146.242 129.852 146.582 129.658C146.922 129.465 147.179 129.209 147.352 128.892C147.53 128.575 147.619 128.231 147.619 127.86C147.619 127.325 147.422 126.87 147.026 126.495C146.635 126.116 146.072 125.926 145.337 125.926H142.996V129.949Z" fill="#505050"/>
<path d="M153.206 124.06H156.288C157.217 124.06 158.013 124.219 158.677 124.536C159.345 124.849 159.857 125.292 160.212 125.865C160.568 126.437 160.746 127.111 160.746 127.885C160.746 128.663 160.568 129.349 160.212 129.942C159.857 130.532 159.345 130.993 158.677 131.327C158.013 131.66 157.217 131.827 156.288 131.827H151.742V119.173H153.947V129.949H156.288C156.778 129.949 157.193 129.852 157.533 129.658C157.873 129.465 158.13 129.209 158.304 128.892C158.481 128.575 158.57 128.231 158.57 127.86C158.57 127.325 158.373 126.87 157.978 126.495C157.586 126.116 157.023 125.926 156.288 125.926H153.206V124.06ZM164 119.173V131.827H161.795V119.173H164Z" fill="#505050"/>
</svg>
